<svg width="143" height="122" viewBox="0 0 143 122" fill="none" xmlns="http://www.w3.org/2000/svg">
<path d="M71.1569 93.973H31.4769L23.3699 119.04C23.1569 120 22.3039 120.64 21.3439 120.533H1.28986C0.116864 120.533 -0.203136 119.893 0.116864 118.613L34.4639 19.733C34.7839 18.667 35.1039 17.493 35.5299 16.213C35.9569 13.973 36.1699 11.627 36.1699 9.28C36.0639 8.747 36.4899 8.213 37.0239 8.107H64.6499C65.5039 8.107 65.9299 8.427 66.0369 8.96L104.97 118.827C105.29 120 104.97 120.533 103.904 120.533H81.6099C80.8639 120.64 80.1169 120.107 79.9039 119.36L71.1569 93.973ZM37.6639 72.32H64.7569C64.1169 70.08 63.2639 67.413 62.3039 64.64C61.3439 61.76 60.3839 58.667 59.4239 55.467C58.3569 52.16 57.3969 48.96 56.3299 45.653C55.2639 42.347 54.3039 39.253 53.4499 36.16C52.5969 33.174 51.8499 30.4 51.1039 27.84H50.8899C49.9299 32.427 48.7569 37.014 47.2639 41.6C45.6639 46.72 44.0639 52.053 42.3569 57.387C40.9795 62.4215 39.4141 67.4027 37.6639 72.32ZM128.757 26.773C125.237 26.88 121.824 25.493 119.264 23.04C116.811 20.373 115.531 16.853 115.637 13.227C115.531 9.6 116.917 6.187 119.477 3.733C122.037 1.279 125.451 0 128.971 0C133.131 0 136.331 1.28 138.677 3.733C141.041 6.31888 142.304 9.72481 142.197 13.227C142.304 16.853 141.024 20.373 138.464 23.04C136.011 25.6 132.384 26.987 128.757 26.773ZM116.811 119.36V37.227C116.811 36.16 117.237 35.733 118.197 35.733H139.317C140.277 35.733 140.704 36.267 140.704 37.227V119.36C140.704 120.533 140.277 121.067 139.317 121.067H118.411C117.344 121.067 116.811 120.427 116.811 119.36Z" fill="#FF9A00"/>
</svg>
