<svg width="256" height="256" viewBox="0 0 256 256" fill="none" xmlns="http://www.w3.org/2000/svg">
<g clip-path="url(#clip0_1008_54)">
<path d="M213.5 0H42.5C19.0279 0 0 19.5158 0 43.5897V212.41C0 236.484 19.0279 256 42.5 256H213.5C236.972 256 256 236.484 256 212.41V43.5897C256 19.5158 236.972 0 213.5 0Z" fill="#330000"/>
<path d="M128.287 159.67H91.9203L84.5204 183.207C84.4198 183.636 84.1759 184.016 83.831 184.281C83.4861 184.546 83.0617 184.679 82.6311 184.658H64.2112C63.1612 184.658 62.7939 184.067 63.1093 182.884L94.5962 90.0262C94.911 89.0593 95.2257 87.9579 95.5405 86.7219C95.953 84.5703 96.1638 82.385 96.1703 80.193C96.1488 80.0397 96.1626 79.8834 96.2103 79.7364C96.2581 79.5894 96.3387 79.4559 96.4456 79.3463C96.5525 79.2368 96.6828 79.1542 96.8263 79.1051C96.9698 79.0561 97.1224 79.0419 97.2722 79.0637H122.304C123.038 79.0637 123.458 79.3328 123.564 79.871L159.301 183.045C159.616 184.122 159.301 184.659 158.357 184.658H137.89C137.538 184.697 137.185 184.605 136.896 184.397C136.606 184.189 136.4 183.881 136.316 183.53L128.287 159.67ZM97.5875 139.358H122.462L122.107 138.159L121.538 136.261L121.132 134.928L120.484 132.829L119.106 128.41L117.894 124.493L114.747 114.289C113.964 111.752 113.212 109.205 112.492 106.649L111.916 104.575L111.243 102.122L110.216 98.3199L110.024 97.6037H109.867C109.079 101.473 108.12 105.304 106.992 109.084L104.656 116.778L103.371 121.029L102.074 125.332C101.84 126.109 101.606 126.878 101.373 127.638L100.676 129.889L99.9829 132.087L99.2936 134.231L98.6079 136.322C98.3805 137.01 98.1535 137.689 97.9267 138.359L97.5875 139.358ZM180.553 96.1524C178.947 96.2182 177.346 95.9363 175.854 95.3252C174.362 94.7141 173.013 93.7874 171.894 92.6059C170.779 91.3724 169.914 89.9257 169.346 88.3488C168.779 86.7719 168.521 85.0958 168.587 83.4166C168.53 81.7542 168.816 80.0982 169.427 78.5567C170.037 77.0151 170.958 75.6228 172.13 74.4705C174.39 72.2491 177.399 71.006 180.532 71L180.867 71.0038C184.646 71.0038 187.611 72.159 189.763 74.4696C190.849 75.6704 191.693 77.0788 192.247 78.6141C192.8 80.1493 193.053 81.7813 192.99 83.4166C193.057 85.1026 192.791 86.7851 192.21 88.364C191.628 89.9428 190.743 91.3857 189.605 92.6068C188.458 93.7651 187.095 94.6765 185.598 95.2875C184.101 95.8985 182.5 96.1968 180.889 96.1646L180.553 96.1524ZM169.689 183.045V105.987C169.689 105.019 170.109 104.535 170.949 104.535H190.314C191.153 104.535 191.573 105.019 191.574 105.987V183.045C191.574 184.122 191.154 184.659 190.314 184.658H171.107C170.212 184.658 169.741 184.176 169.694 183.211L169.689 183.045Z" fill="#FF9A00"/>
</g>
<defs>
<clipPath id="clip0_1008_54">
<rect width="256" height="256" fill="white"/>
</clipPath>
</defs>
</svg>
