<svg width="256" height="256" viewBox="0 0 256 256" fill="none" xmlns="http://www.w3.org/2000/svg">
<g clip-path="url(#clip0_1011_73)">
<path d="M196 0H60C26.8629 0 0 26.8629 0 60V196C0 229.137 26.8629 256 60 256H196C229.137 256 256 229.137 256 196V60C256 26.8629 229.137 0 196 0Z" fill="#F4F2ED"/>
<g clip-path="url(#clip1_1011_73)">
<path d="M189.785 75.2515L178.527 201.268L127.925 215.286L77.4616 201.287L66.2158 75.2515H189.785Z" fill="#108CE7"/>
<path d="M128 204.571L168.889 193.244L178.509 85.5564H128V204.571Z" fill="#1194F2"/>
<path d="M106.116 116.472H128V101.015H89.21L89.58 105.162L93.3824 147.759H128V132.301H107.53L106.116 116.472ZM109.603 155.488H94.0736L96.2407 179.76L127.929 188.549L128 188.53V172.447L127.932 172.465L110.704 167.817L109.603 155.488Z" fill="#EBEBEB"/>
<path d="M127.947 147.759H146.996L145.2 167.807L127.946 172.46V188.542L159.66 179.76L159.892 177.148L163.528 136.452L163.905 132.301H127.947V147.759ZM127.947 116.435V116.472H165.313L165.623 112.998L166.328 105.162L166.698 101.015H127.947V116.435Z" fill="white"/>
<path d="M87.0075 58.6278C87.0075 55.8545 87.5809 53.3878 88.7275 51.2278C89.9009 49.0412 91.5542 47.3478 93.6875 46.1478C95.8209 44.9212 98.2742 44.3078 101.048 44.3078C104.568 44.3078 107.528 45.2545 109.928 47.1478C112.328 49.0145 113.874 51.5612 114.568 54.7878H106.128C105.621 53.7212 104.914 52.9078 104.008 52.3478C103.128 51.7878 102.101 51.5078 100.928 51.5078C99.1142 51.5078 97.6609 52.1612 96.5675 53.4678C95.5009 54.7478 94.9675 56.4678 94.9675 58.6278C94.9675 60.8145 95.5009 62.5612 96.5675 63.8678C97.6609 65.1478 99.1142 65.7878 100.928 65.7878C102.101 65.7878 103.128 65.5078 104.008 64.9478C104.914 64.3878 105.621 63.5745 106.128 62.5078H114.568C113.874 65.7345 112.328 68.2945 109.928 70.1878C107.528 72.0545 104.568 72.9878 101.048 72.9878C98.2742 72.9878 95.8209 72.3878 93.6875 71.1878C91.5542 69.9612 89.9009 68.2678 88.7275 66.1078C87.5809 63.9212 87.0075 61.4278 87.0075 58.6278ZM130.92 73.0678C127.64 73.0678 124.947 72.2945 122.84 70.7478C120.733 69.1745 119.6 66.9345 119.44 64.0278H127.8C127.88 65.0145 128.173 65.7345 128.68 66.1878C129.187 66.6412 129.84 66.8678 130.64 66.8678C131.36 66.8678 131.947 66.6945 132.4 66.3478C132.88 65.9745 133.12 65.4678 133.12 64.8278C133.12 64.0012 132.733 63.3612 131.96 62.9078C131.187 62.4545 129.933 61.9478 128.2 61.3878C126.36 60.7745 124.867 60.1878 123.72 59.6278C122.6 59.0412 121.613 58.2012 120.76 57.1078C119.933 55.9878 119.52 54.5345 119.52 52.7478C119.52 50.9345 119.973 49.3878 120.88 48.1078C121.787 46.8012 123.04 45.8145 124.64 45.1478C126.24 44.4812 128.053 44.1478 130.08 44.1478C133.36 44.1478 135.973 44.9212 137.92 46.4678C139.893 47.9878 140.947 50.1345 141.08 52.9078H132.56C132.533 52.0545 132.267 51.4145 131.76 50.9878C131.28 50.5612 130.653 50.3478 129.88 50.3478C129.293 50.3478 128.813 50.5212 128.44 50.8678C128.067 51.2145 127.88 51.7078 127.88 52.3478C127.88 52.8812 128.08 53.3478 128.48 53.7478C128.907 54.1212 129.427 54.4545 130.04 54.7478C130.653 55.0145 131.56 55.3612 132.76 55.7878C134.547 56.4012 136.013 57.0145 137.16 57.6278C138.333 58.2145 139.333 59.0545 140.16 60.1478C141.013 61.2145 141.44 62.5745 141.44 64.2278C141.44 65.9078 141.013 67.4145 140.16 68.7478C139.333 70.0812 138.12 71.1345 136.52 71.9078C134.947 72.6812 133.08 73.0678 130.92 73.0678ZM157.725 73.0678C154.445 73.0678 151.751 72.2945 149.645 70.7478C147.538 69.1745 146.405 66.9345 146.245 64.0278H154.605C154.685 65.0145 154.978 65.7345 155.485 66.1878C155.991 66.6412 156.645 66.8678 157.445 66.8678C158.165 66.8678 158.751 66.6945 159.205 66.3478C159.685 65.9745 159.925 65.4678 159.925 64.8278C159.925 64.0012 159.538 63.3612 158.765 62.9078C157.991 62.4545 156.738 61.9478 155.005 61.3878C153.165 60.7745 151.671 60.1878 150.525 59.6278C149.405 59.0412 148.418 58.2012 147.565 57.1078C146.738 55.9878 146.325 54.5345 146.325 52.7478C146.325 50.9345 146.778 49.3878 147.685 48.1078C148.591 46.8012 149.845 45.8145 151.445 45.1478C153.045 44.4812 154.858 44.1478 156.885 44.1478C160.165 44.1478 162.778 44.9212 164.725 46.4678C166.698 47.9878 167.751 50.1345 167.885 52.9078H159.365C159.338 52.0545 159.071 51.4145 158.565 50.9878C158.085 50.5612 157.458 50.3478 156.685 50.3478C156.098 50.3478 155.618 50.5212 155.245 50.8678C154.871 51.2145 154.685 51.7078 154.685 52.3478C154.685 52.8812 154.885 53.3478 155.285 53.7478C155.711 54.1212 156.231 54.4545 156.845 54.7478C157.458 55.0145 158.365 55.3612 159.565 55.7878C161.351 56.4012 162.818 57.0145 163.965 57.6278C165.138 58.2145 166.138 59.0545 166.965 60.1478C167.818 61.2145 168.245 62.5745 168.245 64.2278C168.245 65.9078 167.818 67.4145 166.965 68.7478C166.138 70.0812 164.925 71.1345 163.325 71.9078C161.751 72.6812 159.885 73.0678 157.725 73.0678Z" fill="black"/>
</g>
</g>
<defs>
<clipPath id="clip0_1011_73">
<rect width="256" height="256" rx="50" fill="white"/>
</clipPath>
<clipPath id="clip1_1011_73">
<rect width="124" height="174.727" fill="white" transform="translate(66 41)"/>
</clipPath>
</defs>
</svg>
