<svg width="187" height="273" viewBox="0 0 187 273" fill="none" xmlns="http://www.w3.org/2000/svg">
<g clip-path="url(#clip0_1006_146)">
<path d="M186.675 53.5156L169.698 250.408L93.3862 272.31L17.2845 250.439L0.325195 53.5156H186.675Z" fill="#E44D26"/>
<path d="M93.5 255.569L155.164 237.871L169.671 69.6167H93.5V255.569Z" fill="#F16529"/>
<path d="M60.4975 117.921H93.5001V93.769H35.002L35.56 100.248L41.2942 166.804H93.5001V142.653H62.6297L60.4975 117.921ZM65.7554 178.881H42.3366L45.6047 216.803L93.3927 230.536L93.5001 230.506V205.378L93.3978 205.406L67.4165 198.143L65.7554 178.881Z" fill="#EBEBEB"/>
<path d="M93.4197 166.804H122.147L119.438 198.128L93.4189 205.398V230.525L141.245 216.803L141.596 212.722L147.078 149.138L147.647 142.653H93.4197V166.804ZM93.4197 117.862V117.921H149.77L150.238 112.493L151.301 100.248L151.859 93.769H93.4197V117.862Z" fill="white"/>
<path d="M22.7034 18.9095C22.7034 14.9896 23.4874 11.4989 25.0554 8.43755C26.6608 5.37622 28.9381 3.00555 31.8874 1.32555C34.8368 -0.391784 38.3088 -1.25045 42.3034 -1.25045C45.7381 -1.25045 48.7994 -0.597117 51.4874 0.70955C54.2128 1.97888 56.4154 3.78955 58.0954 6.14155C59.8128 8.49355 60.9514 11.2375 61.5114 14.3735H48.4074C47.8101 13.0669 46.9514 12.0589 45.8314 11.3496C44.7488 10.6029 43.4981 10.2295 42.0794 10.2295C39.9888 10.2295 38.3274 11.0135 37.0954 12.5815C35.9008 14.1495 35.3034 16.2589 35.3034 18.9095C35.3034 21.5602 35.9008 23.6696 37.0954 25.2376C38.3274 26.8056 39.9888 27.5896 42.0794 27.5896C43.4981 27.5896 44.7488 27.2349 45.8314 26.5256C46.9514 25.7789 47.8101 24.7522 48.4074 23.4455H61.5114C60.9514 26.5815 59.8128 29.3256 58.0954 31.6776C56.4154 34.0296 54.2128 35.8589 51.4874 37.1656C48.7994 38.4349 45.7381 39.0696 42.3034 39.0696C38.3088 39.0696 34.8368 38.2296 31.8874 36.5496C28.9381 34.8322 26.6608 32.4429 25.0554 29.3816C23.4874 26.3202 22.7034 22.8296 22.7034 18.9095ZM84.2995 39.1816C79.5582 39.1816 75.6382 38.0802 72.5395 35.8776C69.4782 33.6376 67.8168 30.3709 67.5555 26.0776H80.7715C80.9582 28.3549 81.9662 29.4936 83.7955 29.4936C84.4675 29.4936 85.0275 29.3442 85.4755 29.0456C85.9608 28.7096 86.2035 28.2056 86.2035 27.5336C86.2035 26.6002 85.6995 25.8536 84.6915 25.2936C83.6835 24.6962 82.1155 24.0242 79.9875 23.2776C77.4488 22.3815 75.3395 21.5042 73.6595 20.6456C72.0168 19.7869 70.5982 18.5362 69.4035 16.8935C68.2088 15.2509 67.6302 13.1415 67.6675 10.5656C67.6675 7.98955 68.3208 5.80555 69.6275 4.01355C70.9715 2.18422 72.7822 0.802883 75.0595 -0.130452C77.3742 -1.06378 79.9688 -1.53045 82.8435 -1.53045C87.6968 -1.53045 91.5422 -0.410451 94.3795 1.82955C97.2542 4.06955 98.7662 7.22422 98.9155 11.2935H85.5315C85.4942 10.1735 85.2142 9.37088 84.6915 8.88555C84.1688 8.40021 83.5342 8.15755 82.7875 8.15755C82.2648 8.15755 81.8355 8.34422 81.4995 8.71755C81.1635 9.05355 80.9955 9.53888 80.9955 10.1735C80.9955 11.0695 81.4808 11.8162 82.4515 12.4135C83.4595 12.9735 85.0462 13.6642 87.2115 14.4855C89.7128 15.4189 91.7662 16.3149 93.3715 17.1736C95.0142 18.0322 96.4328 19.2269 97.6275 20.7575C98.8222 22.2882 99.4195 24.2109 99.4195 26.5256C99.4195 28.9522 98.8222 31.1362 97.6275 33.0776C96.4328 34.9816 94.6968 36.4749 92.4195 37.5576C90.1422 38.6402 87.4355 39.1816 84.2995 39.1816ZM122.099 39.1816C117.358 39.1816 113.438 38.0802 110.339 35.8776C107.278 33.6376 105.617 30.3709 105.355 26.0776H118.571C118.758 28.3549 119.766 29.4936 121.595 29.4936C122.267 29.4936 122.827 29.3442 123.275 29.0456C123.761 28.7096 124.004 28.2056 124.004 27.5336C124.004 26.6002 123.5 25.8536 122.491 25.2936C121.483 24.6962 119.915 24.0242 117.787 23.2776C115.249 22.3815 113.139 21.5042 111.459 20.6456C109.817 19.7869 108.398 18.5362 107.203 16.8935C106.009 15.2509 105.43 13.1415 105.467 10.5656C105.467 7.98955 106.121 5.80555 107.427 4.01355C108.771 2.18422 110.582 0.802883 112.859 -0.130452C115.174 -1.06378 117.769 -1.53045 120.644 -1.53045C125.497 -1.53045 129.342 -0.410451 132.18 1.82955C135.054 4.06955 136.566 7.22422 136.715 11.2935H123.331C123.294 10.1735 123.014 9.37088 122.491 8.88555C121.969 8.40021 121.334 8.15755 120.587 8.15755C120.065 8.15755 119.635 8.34422 119.299 8.71755C118.963 9.05355 118.795 9.53888 118.795 10.1735C118.795 11.0695 119.281 11.8162 120.251 12.4135C121.259 12.9735 122.846 13.6642 125.011 14.4855C127.513 15.4189 129.566 16.3149 131.171 17.1736C132.814 18.0322 134.233 19.2269 135.427 20.7575C136.622 22.2882 137.219 24.2109 137.219 26.5256C137.219 28.9522 136.622 31.1362 135.427 33.0776C134.233 34.9816 132.497 36.4749 130.22 37.5576C127.942 38.6402 125.235 39.1816 122.099 39.1816Z" fill="black"/>
</g>
<defs>
<clipPath id="clip0_1006_146">
<rect width="187" height="273" fill="white"/>
</clipPath>
</defs>
</svg>
