<svg width="256" height="256" viewBox="0 0 256 256" fill="none" xmlns="http://www.w3.org/2000/svg">
<g clip-path="url(#clip0_998_85)">
<path d="M196 0H60C26.8629 0 0 26.8629 0 60V196C0 229.137 26.8629 256 60 256H196C229.137 256 256 229.137 256 196V60C256 26.8629 229.137 0 196 0Z" fill="#F4F2ED"/>
<mask id="mask0_998_85" style="mask-type:luminance" maskUnits="userSpaceOnUse" x="73" y="46" width="110" height="165">
<path d="M73 46H183V210.967H73V46Z" fill="white"/>
</mask>
<g mask="url(#mask0_998_85)">
<path d="M100.507 210.968C115.684 210.968 128.001 198.65 128.001 183.473V155.978H100.507C85.3298 155.978 73.0117 168.296 73.0117 183.473C73.0117 198.65 85.3298 210.968 100.507 210.968Z" fill="#0ACF83"/>
<path d="M73.0117 128.483C73.0117 113.306 85.3298 100.988 100.507 100.988H128.001V155.977H100.507C85.3298 155.977 73.0117 143.659 73.0117 128.483Z" fill="#A259FF"/>
<path d="M73.0117 73.4942C73.0117 58.3173 85.3298 46 100.507 46H128.001V100.989H100.507C85.3298 100.989 73.0117 88.6712 73.0117 73.4942Z" fill="#F24E1E"/>
<path d="M128 46H155.494C170.671 46 182.989 58.3173 182.989 73.4942C182.989 88.6712 170.671 100.989 155.494 100.989H128V46Z" fill="#FF7262"/>
<path d="M182.989 128.483C182.989 143.659 170.671 155.977 155.494 155.977C140.317 155.977 128 143.659 128 128.483C128 113.306 140.317 100.988 155.494 100.988C170.671 100.988 182.989 113.306 182.989 128.483Z" fill="#1ABCFE"/>
</g>
</g>
<defs>
<clipPath id="clip0_998_85">
<rect width="256" height="256" rx="50" fill="white"/>
</clipPath>
</defs>
</svg>
