<svg width="193" height="273" viewBox="0 0 193 273" fill="none" xmlns="http://www.w3.org/2000/svg">
<path d="M192.665 53.5156L175.143 250.408L96.3828 272.31L17.8394 250.439L0.335938 53.5156H192.665Z" fill="#E44D26"/>
<path d="M96.5 255.569L160.143 237.871L175.115 69.6167H96.5V255.569Z" fill="#F16529"/>
<path d="M62.4386 117.921H96.5001V93.769H36.125L36.701 100.248L42.6191 166.804H96.5001V142.653H64.6392L62.4386 117.921ZM67.8652 178.881H43.695L47.0679 216.803L96.3892 230.536L96.5001 230.506V205.378L96.3945 205.406L69.5796 198.143L67.8652 178.881Z" fill="#EBEBEB"/>
<path d="M96.4168 166.804H126.066L123.27 198.128L96.416 205.398V230.525L145.777 216.803L146.138 212.722L151.797 149.138L152.385 142.653H96.4168V166.804ZM96.4168 117.862V117.921H154.575L155.058 112.493L156.156 100.248L156.731 93.769H96.4168V117.862Z" fill="white"/>
<path d="M18.5576 9.31738H30.7935V21.4436H41.9868V9.31738H54.2234V46.0385H41.9875V33.7422H30.7943V46.0385H18.5584L18.5576 9.31738ZM70.3133 21.495H59.543V9.31738H93.3285V21.495H82.5514V46.0385H70.3155V21.495H70.3133ZM98.6903 9.31738H111.449L119.297 22.2202L127.137 9.31738H139.901V46.0385H127.715V27.8375L119.297 40.8939H119.086L110.662 27.8375V46.0385H98.6903V9.31738ZM145.99 9.31738H158.23V33.901H175.437V46.0385H145.99L145.99 9.31738Z" fill="black"/>
</svg>
