<svg width="256" height="256" viewBox="0 0 256 256" fill="none" xmlns="http://www.w3.org/2000/svg">
<g clip-path="url(#clip0_1008_50)">
<path d="M196 0H60C26.8629 0 0 26.8629 0 60V196C0 229.137 26.8629 256 60 256H196C229.137 256 256 229.137 256 196V60C256 26.8629 229.137 0 196 0Z" fill="#F4F2ED"/>
<g clip-path="url(#clip1_1008_50)">
<path d="M189.785 75.2515L178.527 201.268L127.925 215.286L77.4616 201.287L66.2158 75.2515H189.785Z" fill="#E44D26"/>
<path d="M128 204.571L168.889 193.244L178.509 85.5564H128V204.571Z" fill="#F16529"/>
<path d="M106.116 116.472H128V101.015H89.21L89.58 105.162L93.3824 147.759H128V132.301H107.53L106.116 116.472ZM109.603 155.488H94.0736L96.2407 179.76L127.929 188.549L128 188.53V172.447L127.932 172.465L110.704 167.817L109.603 155.488Z" fill="#EBEBEB"/>
<path d="M127.947 147.759H146.996L145.2 167.807L127.946 172.46V188.542L159.66 179.76L159.892 177.148L163.528 136.452L163.905 132.301H127.947V147.759ZM127.947 116.435V116.472H165.313L165.623 112.998L166.328 105.162L166.698 101.015H127.947V116.435Z" fill="white"/>
<path d="M77.9229 46.9634H85.7843V54.7245H92.9758V46.9634H100.838V70.4659H92.9763V62.5959H85.7847V70.4659H77.9233L77.9229 46.9634ZM111.175 54.7574H104.255V46.9634H125.962V54.7574H119.038V70.4659H111.177V54.7574H111.175ZM129.407 46.9634H137.604L142.646 55.2215L147.684 46.9634H155.884V70.4659H148.055V58.8168L142.646 67.1732H142.511L137.099 58.8168V70.4659H129.407V46.9634ZM159.797 46.9634H167.661V62.6975H178.716V70.4659H159.796L159.797 46.9634Z" fill="black"/>
</g>
</g>
<defs>
<clipPath id="clip0_1008_50">
<rect width="256" height="256" rx="50" fill="white"/>
</clipPath>
<clipPath id="clip1_1008_50">
<rect width="124" height="174.727" fill="white" transform="translate(66 41)"/>
</clipPath>
</defs>
</svg>
