<svg width="187" height="273" viewBox="0 0 187 273" fill="none" xmlns="http://www.w3.org/2000/svg">
<g clip-path="url(#clip0_1008_44)">
<path d="M186.675 53.5156L169.698 250.408L93.3862 272.31L17.2845 250.439L0.325195 53.5156H186.675Z" fill="#E44D26"/>
<path d="M93.5 255.569L155.164 237.871L169.671 69.6167H93.5V255.569Z" fill="#F16529"/>
<path d="M60.4975 117.921H93.5001V93.769H35.002L35.56 100.248L41.2942 166.804H93.5001V142.653H62.6297L60.4975 117.921ZM65.7554 178.881H42.3366L45.6047 216.803L93.3927 230.536L93.5001 230.506V205.378L93.3978 205.406L67.4165 198.143L65.7554 178.881Z" fill="#EBEBEB"/>
<path d="M93.4197 166.804H122.147L119.438 198.128L93.4189 205.398V230.525L141.245 216.803L141.596 212.722L147.078 149.138L147.647 142.653H93.4197V166.804ZM93.4197 117.862V117.921H149.77L150.238 112.493L151.301 100.248L151.859 93.769H93.4197V117.862Z" fill="white"/>
<path d="M80.257 0.246531V25.8385C80.257 30.5799 79.0063 34.1825 76.505 36.6465C74.041 39.0732 70.569 40.2865 66.089 40.2865C61.273 40.2865 57.4463 38.9612 54.609 36.3105C51.7716 33.6599 50.353 29.7959 50.353 24.7185H62.617C62.617 26.3239 62.8783 27.4625 63.401 28.1345C63.9236 28.7692 64.633 29.0865 65.529 29.0865C66.2756 29.0865 66.8543 28.8439 67.265 28.3585C67.6756 27.8732 67.881 27.0332 67.881 25.8385V0.246531H80.257ZM103.936 40.2865C99.1949 40.2865 95.2749 39.1852 92.1762 36.9825C89.1149 34.7425 87.4536 31.4759 87.1922 27.1825H100.408C100.595 29.4599 101.603 30.5985 103.432 30.5985C104.104 30.5985 104.664 30.4492 105.112 30.1505C105.598 29.8145 105.84 29.3105 105.84 28.6385C105.84 27.7052 105.336 26.9585 104.328 26.3985C103.32 25.8012 101.752 25.1292 99.6242 24.3825C97.0856 23.4865 94.9762 22.6092 93.2962 21.7505C91.6536 20.8919 90.2349 19.6412 89.0402 17.9985C87.8456 16.3559 87.2669 14.2465 87.3042 11.6705C87.3042 9.09453 87.9576 6.91053 89.2642 5.11853C90.6082 3.2892 92.4189 1.90786 94.6962 0.974528C97.0109 0.0411959 99.6056 -0.42547 102.48 -0.42547C107.334 -0.42547 111.179 0.69453 114.016 2.93453C116.891 5.17453 118.403 8.3292 118.552 12.3985H105.168C105.131 11.2785 104.851 10.4759 104.328 9.99053C103.806 9.5052 103.171 9.26253 102.424 9.26253C101.902 9.26253 101.472 9.4492 101.136 9.82253C100.8 10.1585 100.632 10.6439 100.632 11.2785C100.632 12.1745 101.118 12.9212 102.088 13.5185C103.096 14.0785 104.683 14.7692 106.848 15.5905C109.35 16.5239 111.403 17.4199 113.008 18.2785C114.651 19.1372 116.07 20.3319 117.264 21.8625C118.459 23.3932 119.056 25.3159 119.056 27.6305C119.056 30.0572 118.459 32.2412 117.264 34.1825C116.07 36.0865 114.334 37.5799 112.056 38.6625C109.779 39.7452 107.072 40.2865 103.936 40.2865Z" fill="black"/>
</g>
<defs>
<clipPath id="clip0_1008_44">
<rect width="187" height="273" fill="white"/>
</clipPath>
</defs>
</svg>
