<svg width="256" height="256" viewBox="0 0 256 256" fill="none" xmlns="http://www.w3.org/2000/svg">
<g clip-path="url(#clip0_1011_97)">
<path d="M196 0H60C26.8629 0 0 26.8629 0 60V196C0 229.137 26.8629 256 60 256H196C229.137 256 256 229.137 256 196V60C256 26.8629 229.137 0 196 0Z" fill="#F7DF1E"/>
<path d="M88.0008 206.717L104.021 196.323C107.112 202.198 109.923 207.168 116.667 207.168C123.132 207.168 127.208 204.458 127.208 193.913V122.206H146.881V194.211C146.881 216.055 134.937 225.997 117.51 225.997C101.773 225.997 92.6375 217.26 88 206.715M157.566 204.457L173.584 194.515C177.802 201.897 183.282 207.32 192.977 207.32C201.13 207.32 206.327 202.951 206.327 196.925C206.327 189.694 200.987 187.133 191.994 182.916L187.077 180.654C172.883 174.179 163.468 166.043 163.468 148.87C163.468 133.052 174.71 121 192.276 121C204.783 121 213.776 125.671 220.24 137.873L204.922 148.419C201.548 141.941 197.896 139.38 192.275 139.38C186.513 139.38 182.859 143.297 182.859 148.419C182.859 154.745 186.513 157.308 194.944 161.224L199.862 163.484C216.585 171.167 226 179 226 196.624C226 215.607 212.088 226 193.399 226C175.131 226 163.327 216.66 157.565 204.458" fill="black"/>
</g>
<defs>
<clipPath id="clip0_1011_97">
<rect width="256" height="256" fill="white"/>
</clipPath>
</defs>
</svg>
