<svg width="256" height="256" viewBox="0 0 256 256" fill="none" xmlns="http://www.w3.org/2000/svg">
<g clip-path="url(#clip0_1011_63)">
<path d="M213.5 0H42.5C19.0279 0 0 19.5158 0 43.5897V212.41C0 236.484 19.0279 256 42.5 256H213.5C236.972 256 256 236.484 256 212.41V43.5897C256 19.5158 236.972 0 213.5 0Z" fill="#242938"/>
<path d="M60 177.615V77.6512C60 76.9709 60.2846 76.5829 60.949 76.5829C62.5615 76.5829 64.0797 76.5829 66.2614 76.4854C68.5383 76.388 70.9103 76.388 73.4718 76.2914C76.0333 76.194 78.7842 76.194 81.7255 76.0965C84.6658 76 87.5119 76 90.358 76C98.1376 76 104.588 76.9709 109.902 79.0109C114.664 80.6674 119.006 83.3887 122.614 86.9773C125.67 90.1185 128.032 93.8952 129.54 98.052C130.963 102.132 131.722 106.31 131.722 110.681C131.722 119.036 129.824 125.933 126.029 131.374C122.234 136.813 116.922 140.894 110.756 143.225C104.304 145.654 97.1886 146.528 89.4099 146.528C87.133 146.528 85.6148 146.528 84.6658 146.431C83.7168 146.334 82.389 146.334 80.587 146.334V177.518C80.6813 178.198 80.2072 178.781 79.5429 178.878H61.1384C60.3798 178.878 60 178.489 60 177.615ZM80.6813 95.3316V127.973C82.0101 128.07 83.2428 128.168 84.3812 128.168H89.4099C93.1098 128.168 96.8097 127.585 100.319 126.419C103.356 125.545 106.012 123.699 108.099 121.27C110.091 118.842 111.04 115.538 111.04 111.264C111.129 108.228 110.372 105.229 108.858 102.618C107.245 100.092 104.968 98.1494 102.217 97.0802C98.7068 95.623 94.9118 95.0401 91.0224 95.1376C88.5561 95.1376 86.3735 95.1376 84.5716 95.235C82.6736 95.1376 81.3457 95.235 80.6813 95.3316ZM190.92 122.047C188.074 120.493 185.039 119.425 181.813 118.744C178.302 117.967 174.793 117.481 171.187 117.481C169.29 117.384 167.298 117.676 165.495 118.161C164.262 118.453 163.218 119.133 162.554 120.104C162.08 120.882 161.795 121.853 161.795 122.727C161.795 123.601 162.175 124.476 162.744 125.253C163.598 126.322 164.736 127.196 165.97 127.876C168.169 129.042 170.417 130.112 172.705 131.082C177.828 132.831 182.762 135.259 187.315 138.173C190.446 140.213 193.008 142.934 194.81 146.237C196.328 149.345 197.086 152.745 196.992 156.242C197.086 160.809 195.759 165.375 193.292 169.163C190.646 173.041 186.954 176.046 182.667 177.809C178.018 179.849 172.325 180.918 165.495 180.918C161.131 180.918 156.862 180.529 152.593 179.655C149.247 179.063 145.993 178.018 142.916 176.547C142.252 176.158 141.778 175.478 141.872 174.701V157.797C141.872 157.506 141.967 157.117 142.252 156.923C142.537 156.729 142.821 156.825 143.106 157.02C146.806 159.254 150.695 160.809 154.87 161.78C158.475 162.752 162.27 163.237 166.064 163.237C169.67 163.237 172.231 162.752 173.939 161.877C175.456 161.197 176.5 159.546 176.5 157.797C176.5 156.437 175.741 155.174 174.223 153.911C172.705 152.649 169.575 151.191 164.926 149.345C160.157 147.624 155.629 145.273 151.455 142.351C148.481 140.182 146.018 137.36 144.244 134.093C142.726 130.985 141.967 127.585 142.063 124.184C142.063 120.007 143.201 116.024 145.288 112.43C147.66 108.544 151.17 105.435 155.249 103.492C159.708 101.16 165.305 100.092 172.041 100.092C175.931 100.092 179.916 100.383 183.805 100.966C186.651 101.355 189.402 102.132 191.963 103.2C192.343 103.298 192.723 103.687 192.912 104.075C193.008 104.464 193.102 104.853 193.102 105.241V121.076C193.102 121.465 192.912 121.853 192.628 122.047C191.774 122.241 191.3 122.241 190.92 122.047Z" fill="#31A8FF"/>
</g>
<defs>
<clipPath id="clip0_1011_63">
<rect width="256" height="256" rx="50" fill="white"/>
</clipPath>
</defs>
</svg>
