<svg width="155" height="116" viewBox="0 0 155 116" fill="none" xmlns="http://www.w3.org/2000/svg">
<path d="M0 111.573V1.813C0 1.066 0.320001 0.639999 1.067 0.639999C2.88 0.639999 4.587 0.639997 7.04 0.532997C9.6 0.425997 12.267 0.426 15.147 0.32C18.027 0.213 21.12 0.212995 24.427 0.105995C27.733 -4.82053e-06 30.933 0 34.133 0C42.88 0 50.133 1.066 56.107 3.306C61.4614 5.12483 66.3438 8.11275 70.4 12.053C73.8364 15.502 76.4919 19.6489 78.187 24.213C79.787 28.693 80.64 33.28 80.64 38.08C80.64 47.2533 78.5067 54.8267 74.24 60.8C69.973 66.773 64 71.253 57.067 73.813C49.813 76.48 41.813 77.44 33.067 77.44C30.507 77.44 28.8 77.44 27.733 77.333C26.666 77.226 25.173 77.226 23.147 77.226V111.466C23.253 112.213 22.72 112.853 21.973 112.96H1.28C0.427003 112.96 0 112.533 0 111.573ZM23.253 21.226V57.066C24.747 57.173 26.133 57.28 27.413 57.28H33.067C37.227 57.28 41.387 56.64 45.333 55.36C48.747 54.4 51.733 52.373 54.08 49.706C56.32 47.04 57.387 43.413 57.387 38.72C57.4871 35.3865 56.636 32.0934 54.933 29.226C53.12 26.453 50.56 24.32 47.467 23.146C43.52 21.546 39.253 20.906 34.88 21.013C32.107 21.013 29.653 21.013 27.627 21.12C25.493 21.013 24 21.12 23.253 21.226ZM147.2 50.56C144 48.853 140.587 47.68 136.96 46.933C133.013 46.08 129.067 45.546 125.013 45.546C122.88 45.44 120.64 45.76 118.613 46.293C117.227 46.613 116.053 47.36 115.307 48.426C114.773 49.28 114.453 50.346 114.453 51.306C114.453 52.266 114.88 53.226 115.52 54.08C116.48 55.253 117.76 56.213 119.147 56.96C121.62 58.2404 124.147 59.4148 126.72 60.48C132.48 62.4 138.027 65.066 143.147 68.266C146.667 70.506 149.547 73.493 151.573 77.12C153.28 80.533 154.133 84.266 154.027 88.106C154.133 93.12 152.64 98.133 149.867 102.293C146.892 106.551 142.74 109.85 137.92 111.786C132.693 114.026 126.293 115.2 118.613 115.2C113.707 115.2 108.907 114.773 104.107 113.813C100.345 113.163 96.6861 112.016 93.227 110.4C92.48 109.973 91.947 109.226 92.053 108.373V89.813C92.053 89.493 92.16 89.066 92.48 88.853C92.8 88.64 93.12 88.746 93.44 88.96C97.6 91.413 101.973 93.12 106.667 94.186C110.72 95.253 114.987 95.786 119.253 95.786C123.307 95.786 126.187 95.253 128.107 94.293C129.813 93.546 130.987 91.733 130.987 89.813C130.987 88.32 130.133 86.933 128.427 85.546C126.72 84.16 123.2 82.56 117.973 80.533C112.612 78.6432 107.52 76.0614 102.827 72.853C99.4841 70.4711 96.7145 67.3736 94.72 63.786C93.013 60.373 92.16 56.64 92.267 52.906C92.267 48.32 93.547 43.946 95.893 40C98.56 35.733 102.507 32.32 107.093 30.186C112.107 27.626 118.4 26.453 125.973 26.453C130.347 26.453 134.827 26.773 139.2 27.413C142.4 27.84 145.493 28.693 148.373 29.866C148.8 29.973 149.227 30.4 149.44 30.826C149.547 31.253 149.653 31.68 149.653 32.106V49.493C149.653 49.92 149.44 50.346 149.12 50.56C148.16 50.773 147.627 50.773 147.2 50.56Z" fill="#31A8FF"/>
</svg>
