<svg width="256" height="256" viewBox="0 0 256 256" fill="none" xmlns="http://www.w3.org/2000/svg">
<g clip-path="url(#clip0_1011_107)">
<path d="M196 0H60C26.8629 0 0 26.8629 0 60V196C0 229.137 26.8629 256 60 256H196C229.137 256 256 229.137 256 196V60C256 26.8629 229.137 0 196 0Z" fill="#242938"/>
<path d="M181.018 102.961C179.284 102.367 177.534 101.816 175.772 101.309C176.068 100.101 176.341 98.9067 176.582 97.7337C180.554 78.4711 177.958 62.9528 169.089 57.8434C160.586 52.9452 146.679 58.0527 132.634 70.2644C131.25 71.4701 129.897 72.7105 128.575 73.9845C127.69 73.1374 126.79 72.3066 125.875 71.4928C111.155 58.4356 96.4011 52.9325 87.5418 58.0565C79.0461 62.9699 76.5304 77.5583 80.1062 95.8139C80.462 97.6219 80.8636 99.4206 81.3109 101.208C79.2224 101.801 77.2072 102.432 75.2786 103.104C58.021 109.115 47 118.536 47 128.307C47 138.399 58.8315 148.522 76.8061 154.66C78.2633 155.156 79.7327 155.615 81.2128 156.037C80.7323 157.963 80.3055 159.901 79.933 161.85C76.524 179.789 79.1861 194.033 87.6589 198.915C96.41 203.957 111.098 198.775 125.399 186.285C126.559 185.269 127.693 184.225 128.801 183.153C130.232 184.532 131.701 185.872 133.207 187.17C147.06 199.079 160.742 203.888 169.207 198.993C177.949 193.936 180.791 178.635 177.102 160.018C176.811 158.56 176.486 157.109 176.125 155.666C177.156 155.361 178.169 155.046 179.155 154.719C197.842 148.534 210 138.534 210 128.307C210 118.5 198.623 109.016 181.018 102.961ZM176.966 148.116C176.074 148.411 175.161 148.696 174.228 148.972C172.165 142.447 169.381 135.51 165.974 128.341C169.225 121.344 171.902 114.494 173.907 108.012C175.575 108.494 177.192 109.003 178.752 109.539C193.836 114.727 203.037 122.397 203.037 128.307C203.037 134.602 193.1 142.775 176.966 148.116ZM170.271 161.369C171.903 169.601 172.135 177.044 171.054 182.862C170.084 188.091 168.132 191.576 165.717 192.972C160.581 195.943 149.596 192.082 137.748 181.896C136.348 180.689 134.981 179.444 133.65 178.162C138.243 173.144 142.833 167.31 147.313 160.83C155.193 160.132 162.638 158.989 169.389 157.43C169.722 158.771 170.016 160.084 170.271 161.369ZM102.57 192.459C97.5516 194.229 93.5543 194.28 91.138 192.888C85.9965 189.926 83.859 178.489 86.7745 163.148C87.1211 161.335 87.518 159.532 87.9646 157.742C94.6412 159.217 102.032 160.278 109.93 160.918C114.441 167.259 119.163 173.086 123.923 178.189C122.911 179.167 121.876 180.12 120.817 181.047C114.493 186.57 108.156 190.488 102.57 192.459ZM79.0588 148.078C71.1106 145.363 64.5467 141.836 60.0476 137.987C56.0045 134.528 53.9638 131.094 53.9638 128.307C53.9638 122.377 62.8123 114.814 77.5708 109.673C79.3619 109.05 81.2364 108.461 83.1815 107.909C85.2216 114.538 87.8971 121.468 91.1259 128.477C87.8551 135.588 85.1414 142.63 83.0816 149.336C81.7305 148.95 80.3892 148.53 79.0588 148.078ZM86.9401 94.4774C83.8768 78.8369 85.9112 67.0386 91.031 64.0774C96.4839 60.9235 108.542 65.4203 121.252 76.695C122.08 77.4319 122.896 78.1837 123.697 78.9501C118.961 84.0309 114.282 89.8152 109.812 96.1179C102.146 96.8279 94.8074 97.9678 88.0607 99.4951C87.645 97.8325 87.2713 96.1589 86.9401 94.4774ZM157.251 111.824C155.657 109.074 154.005 106.359 152.294 103.68C157.495 104.337 162.478 105.209 167.157 106.275C165.753 110.774 164.002 115.477 161.94 120.298C160.434 117.443 158.871 114.617 157.251 111.824ZM128.578 83.9227C131.79 87.3992 135.007 91.2802 138.17 95.4914C131.752 95.1885 125.324 95.1872 118.905 95.4875C122.072 91.3152 125.316 87.4392 128.578 83.9227ZM99.7216 111.871C98.1223 114.642 96.5881 117.45 95.12 120.292C93.0927 115.487 91.3576 110.763 89.941 106.201C94.5915 105.161 99.5509 104.311 104.719 103.666C102.989 106.362 101.323 109.098 99.7216 111.871ZM104.867 153.443C99.528 152.847 94.4941 152.041 89.8448 151.03C91.2838 146.386 93.057 141.561 95.1283 136.653C96.6022 139.498 98.1428 142.307 99.749 145.079C101.401 147.929 103.111 150.721 104.867 153.443ZM128.771 173.182C125.47 169.624 122.178 165.689 118.963 161.456C122.084 161.578 125.266 161.64 128.5 161.64C131.822 161.64 135.107 161.566 138.339 161.422C135.165 165.731 131.961 169.673 128.771 173.182ZM162.006 136.403C164.185 141.364 166.021 146.164 167.479 150.728C162.754 151.806 157.651 152.674 152.274 153.318C153.997 150.589 155.666 147.827 157.278 145.032C158.918 142.191 160.495 139.314 162.006 136.403ZM151.247 141.556C148.778 145.841 146.17 150.045 143.427 154.161C138.459 154.513 133.48 154.687 128.5 154.684C123.427 154.684 118.493 154.527 113.742 154.219C110.928 150.112 108.27 145.901 105.775 141.594C103.291 137.31 100.972 132.933 98.8206 128.473C100.966 124.011 103.279 119.632 105.754 115.345L105.754 115.346C108.228 111.057 110.864 106.864 113.657 102.775C118.505 102.409 123.476 102.218 128.499 102.218C133.546 102.218 138.524 102.411 143.37 102.779C146.135 106.862 148.754 111.041 151.224 115.308C153.707 119.586 156.051 123.944 158.251 128.374C156.073 132.85 153.737 137.246 151.247 141.556ZM165.611 63.8694C171.069 67.0144 173.192 79.6969 169.763 96.3285C169.543 97.3904 169.299 98.4697 169.03 99.5664C162.267 98.0066 154.924 96.8469 147.235 96.1262C142.757 89.7541 138.116 83.9609 133.457 78.9457C134.678 77.7698 135.928 76.6244 137.206 75.5106C149.24 65.0482 160.487 60.9172 165.611 63.8694ZM128.5 113.765C136.539 113.765 143.055 120.276 143.055 128.307C143.055 136.338 136.539 142.849 128.5 142.849C120.461 142.849 113.945 136.338 113.945 128.307C113.945 120.276 120.461 113.765 128.5 113.765Z" fill="#00D8FF"/>
</g>
<defs>
<clipPath id="clip0_1011_107">
<rect width="256" height="256" rx="50" fill="white"/>
</clipPath>
</defs>
</svg>
