<svg width="210" height="187" viewBox="0 0 210 187" fill="none" xmlns="http://www.w3.org/2000/svg">
<g clip-path="url(#clip0_1008_42)">
<path d="M172.662 60.5485C170.427 59.782 168.173 59.0718 165.902 58.4185C166.284 56.8602 166.635 55.3207 166.947 53.8083C172.064 28.9726 168.719 8.96437 157.292 2.37673C146.337 -3.93863 128.421 2.64656 110.326 18.3915C108.543 19.9459 106.799 21.5452 105.097 23.1879C103.957 22.0956 102.797 21.0246 101.618 19.9752C82.6539 3.14031 63.6456 -3.95503 52.2318 2.65148C41.2863 8.98652 38.0453 27.7956 42.6521 51.333C43.1105 53.6641 43.628 55.9832 44.2042 58.2881C41.5136 59.0525 38.9173 59.8661 36.4325 60.7322C14.1988 68.4829 0 80.6288 0 93.2276C0 106.24 15.243 119.291 38.4005 127.205C40.2779 127.844 42.171 128.436 44.0779 128.981C43.4588 131.463 42.9089 133.962 42.429 136.475C38.0371 159.604 41.4668 177.969 52.3827 184.264C63.6571 190.764 82.58 184.083 101.005 167.979C102.499 166.67 103.96 165.323 105.387 163.941C107.231 165.72 109.124 167.447 111.064 169.12C128.912 184.475 146.539 190.676 157.444 184.364C168.708 177.844 172.369 158.116 167.616 134.113C167.242 132.233 166.822 130.362 166.357 128.502C167.686 128.108 168.99 127.703 170.262 127.281C194.336 119.307 210 106.414 210 93.2276C210 80.5829 195.343 68.3549 172.662 60.5485ZM167.441 118.768C166.291 119.147 165.115 119.515 163.913 119.871C161.255 111.458 157.669 102.514 153.279 93.271C157.468 84.2491 160.917 75.4183 163.5 67.0607C165.648 67.6824 167.733 68.3377 169.742 69.0291C189.176 75.7185 201.029 85.6073 201.029 93.2276C201.029 101.344 188.227 111.881 167.441 118.768ZM158.816 135.855C160.917 146.468 161.217 156.064 159.825 163.567C158.575 170.308 156.06 174.801 152.949 176.602C146.331 180.432 132.179 175.453 116.915 162.321C115.111 160.765 113.35 159.16 111.635 157.506C117.552 151.036 123.466 143.514 129.238 135.16C139.39 134.259 148.981 132.786 157.679 130.776C158.108 132.505 158.487 134.198 158.816 135.855ZM71.5936 175.94C65.1279 178.222 59.978 178.288 56.8649 176.493C50.2409 172.674 47.4871 157.928 51.2433 138.149C51.6898 135.811 52.2011 133.487 52.7764 131.178C61.3782 133.081 70.8996 134.449 81.0756 135.274C86.8867 143.449 92.9709 150.962 99.1028 157.542C97.7996 158.802 96.4656 160.031 95.1021 161.226C86.9539 168.347 78.7894 173.399 71.5936 175.94ZM41.3027 118.718C31.0628 115.218 22.6062 110.67 16.8098 105.707C11.6009 101.248 8.97176 96.8199 8.97176 93.2276C8.97176 85.5819 20.3716 75.83 39.3857 69.2022C41.6932 68.3984 44.1082 67.6397 46.6143 66.9278C49.2425 75.474 52.6895 84.4099 56.8493 93.4457C52.6354 102.615 49.1392 111.694 46.4855 120.341C44.7449 119.842 43.0168 119.301 41.3027 118.718ZM51.4566 49.6098C47.51 29.4442 50.1309 14.2324 56.7271 10.4144C63.7522 6.34801 79.2873 12.1458 95.6616 26.6826C96.7293 27.6327 97.7798 28.602 98.8124 29.5901C92.7109 36.1409 86.6824 43.5987 80.923 51.725C71.0464 52.6404 61.5923 54.1101 52.9003 56.0794C52.3647 53.9356 51.8833 51.7779 51.4566 49.6098ZM142.041 71.9752C139.988 68.4295 137.859 64.9285 135.655 61.4745C142.355 62.3217 148.775 63.4462 154.804 64.8208C152.994 70.6211 150.738 76.6846 148.083 82.9016C146.142 79.2196 144.128 75.5767 142.041 71.9752ZM105.101 36.0015C109.239 40.4837 113.383 45.4876 117.459 50.9172C109.19 50.5267 100.908 50.525 92.6387 50.9122C96.7189 45.5327 100.898 40.5354 105.101 36.0015ZM67.9235 72.0359C65.8631 75.6084 63.8865 79.2285 61.9951 82.8934C59.3832 76.6986 57.1479 70.6071 55.3227 64.7248C61.3143 63.3847 67.7037 62.2889 74.3613 61.4572C72.133 64.9324 69.9865 68.4601 67.9235 72.0359ZM74.5525 125.635C67.6741 124.867 61.1888 123.828 55.1988 122.524C57.0527 116.537 59.3373 110.316 62.0058 103.988C63.9046 107.656 65.8895 111.278 67.9588 114.852C70.0867 118.527 72.29 122.126 74.5525 125.635ZM105.349 151.085C101.096 146.499 96.8551 141.424 92.7134 135.967C96.7345 136.124 100.834 136.205 105 136.205C109.28 136.205 113.512 136.109 117.676 135.923C113.587 141.479 109.458 146.561 105.349 151.085ZM148.167 103.665C150.974 110.062 153.34 116.251 155.219 122.135C149.13 123.525 142.556 124.644 135.63 125.474C137.849 121.956 139.999 118.394 142.076 114.791C144.189 111.128 146.22 107.418 148.167 103.665ZM134.306 110.309C131.124 115.834 127.765 121.254 124.231 126.561C117.831 127.015 111.416 127.24 105 127.236C98.4646 127.236 92.108 127.033 85.9868 126.636C82.3611 121.341 78.9371 115.912 75.7222 110.359C72.5221 104.835 69.534 99.1916 66.7628 93.4408C69.527 87.6887 72.5068 82.0427 75.696 76.5148L75.6952 76.5157C78.8827 70.9861 82.2793 65.5797 85.8777 60.3082C92.1227 59.8358 98.5269 59.5897 104.999 59.5897C111.501 59.5897 117.914 59.8382 124.158 60.3139C127.72 65.5776 131.095 70.9654 134.276 76.4673C137.475 81.9833 140.495 87.6017 143.329 93.3137C140.524 99.084 137.514 104.753 134.306 110.309ZM152.812 10.1462C159.844 14.2012 162.579 30.553 158.16 51.9965C157.877 53.3657 157.563 54.7572 157.217 56.1712C148.504 54.1601 139.043 52.665 129.138 51.7357C123.368 43.52 117.388 36.0507 111.386 29.5844C112.959 28.0684 114.57 26.5916 116.216 25.1555C131.72 11.666 146.21 6.33981 152.812 10.1462ZM105 74.4783C115.356 74.4783 123.752 82.8728 123.752 93.2276C123.752 103.582 115.356 111.977 105 111.977C94.6436 111.977 86.2477 103.582 86.2477 93.2276C86.2477 82.8728 94.6436 74.4783 105 74.4783Z" fill="#00D8FF"/>
</g>
<defs>
<clipPath id="clip0_1008_42">
<rect width="210" height="187" fill="white"/>
</clipPath>
</defs>
</svg>
