<svg width="256" height="256" viewBox="0 0 256 256" fill="none" xmlns="http://www.w3.org/2000/svg">
<g clip-path="url(#clip0_998_97)">
<path d="M213.5 0H42.5C19.0279 0 0 19.5158 0 43.5897V212.41C0 236.484 19.0279 256 42.5 256H213.5C236.972 256 256 236.484 256 212.41V43.5897C256 19.5158 236.972 0 213.5 0Z" fill="#470137"/>
<path d="M133.974 84.3727L107.392 129.299L135.831 177.005C136.014 177.339 136.065 177.731 135.974 178.102C135.93 178.261 135.835 178.3 135.69 178.306L135.528 178.304L135.332 178.298C135.225 178.298 135.106 178.304 134.974 178.326H114.47L114.067 178.319C112.962 178.289 112.166 178.127 111.681 177.297C109.783 173.512 107.878 169.732 105.964 165.956C104.252 162.589 102.493 159.246 100.688 155.929L99.8907 154.469C97.7318 150.54 95.612 146.589 93.5314 142.616H93.3882C91.4669 146.547 89.4898 150.45 87.4575 154.322C85.4077 158.225 83.383 162.103 81.3837 165.956C79.3828 169.812 77.3345 173.641 75.2391 177.444C74.9021 178.219 74.342 178.381 73.5623 178.408L73.2378 178.413H53.6598L53.5749 178.415L53.2953 178.441C53.1397 178.45 53.0465 178.416 53.0166 178.176C52.9633 177.819 53.0396 177.454 53.2313 177.151L80.812 130.762L53.9452 84.2278C53.6601 83.8392 53.6124 83.5222 53.8021 83.2768C53.9076 83.1518 54.04 83.0536 54.1889 82.99C54.3378 82.9264 54.4991 82.8992 54.6601 82.9104H74.8097C75.2491 82.8861 75.6883 82.9611 76.0962 83.1303C76.4374 83.3288 76.7311 83.604 76.9533 83.9355C78.6681 87.8382 80.5737 91.7404 82.6702 95.6419C84.7501 99.5183 86.87 103.372 89.0294 107.203C91.1558 110.974 93.1343 114.831 94.9602 118.763H95.1033C96.9745 114.831 98.9039 110.929 100.891 107.057C102.843 103.252 104.843 99.4225 106.892 95.5687C108.915 91.7648 110.892 87.9357 112.823 84.0821C112.933 83.7208 113.129 83.3936 113.395 83.1303C113.748 82.9471 114.144 82.8709 114.538 82.9104H133.259C133.431 82.8665 133.612 82.881 133.776 82.9517C133.939 83.0224 134.076 83.1455 134.165 83.3026C134.254 83.4596 134.291 83.642 134.27 83.8224C134.249 84.0028 134.172 84.1714 134.05 84.3028L133.974 84.3727ZM175.972 180.213L174.987 180.224C168.409 180.327 161.892 178.928 155.908 176.127C150.335 173.486 145.675 169.173 142.547 163.761C139.392 158.396 137.773 151.711 137.691 143.707L137.688 143.055C137.634 136.338 139.31 129.726 142.547 123.885C145.787 118.103 150.51 113.339 156.205 110.109L156.695 109.837C162.886 106.324 170.365 104.568 179.131 104.568L179.514 104.572L179.952 104.587L180.443 104.609L180.989 104.641L181.906 104.708L182.944 104.793L183.704 104.861V76.0321C183.704 75.3498 183.99 75.0084 184.561 75.0079H202.568C202.684 74.9908 202.803 75.0017 202.915 75.0397C203.026 75.0778 203.128 75.1419 203.211 75.2271C203.294 75.3123 203.357 75.4161 203.394 75.5304C203.431 75.6447 203.442 75.7663 203.425 75.8855V162.371C203.425 163.824 203.48 165.387 203.59 167.062L203.856 170.858L203.997 173.054C204.015 173.358 203.943 173.66 203.789 173.921C203.636 174.183 203.41 174.39 203.139 174.518C198.494 176.501 193.656 177.973 188.706 178.907C184.504 179.702 180.245 180.138 175.972 180.213ZM183.704 162.078V122.128C182.932 121.914 182.143 121.767 181.346 121.69C180.373 121.589 179.395 121.54 178.416 121.543C174.948 121.507 171.521 122.309 168.413 123.885C165.386 125.427 162.801 127.746 160.91 130.616C159.024 133.442 158.048 137.132 157.984 141.685L157.98 142.177C157.911 145.367 158.42 148.542 159.481 151.542C160.345 153.959 161.71 156.156 163.483 157.981C165.18 159.66 167.235 160.913 169.485 161.639C171.862 162.427 174.346 162.823 176.844 162.811C178.178 162.811 179.416 162.762 180.56 162.664C181.473 162.593 182.377 162.439 183.263 162.204L183.704 162.078Z" fill="#FF61F6"/>
</g>
<defs>
<clipPath id="clip0_998_97">
<rect width="256" height="256" rx="50" fill="white"/>
</clipPath>
</defs>
</svg>
