<svg width="182" height="124" viewBox="0 0 182 124" fill="none" xmlns="http://www.w3.org/2000/svg">
<path d="M97.3069 10.9992L65.3639 63.7222L99.5389 119.707C99.7589 120.099 99.8199 120.559 99.7109 120.995C99.6579 121.181 99.5439 121.227 99.3689 121.234L99.1749 121.231L98.9389 121.225C98.8109 121.225 98.6679 121.231 98.5089 121.257H73.8689L73.3849 121.249C72.0569 121.214 71.0999 121.024 70.5169 120.05C68.237 115.609 65.947 111.172 63.6469 106.741C61.5895 102.789 59.4759 98.8663 57.3069 94.9742L56.3489 93.2602C53.7546 88.6495 51.2072 84.0126 48.7069 79.3502H48.5349C46.226 83.9639 43.8501 88.5437 41.4079 93.0882C38.9446 97.6682 36.5116 102.219 34.1089 106.741C31.7045 111.266 29.2429 115.76 26.7249 120.222C26.3199 121.132 25.6469 121.322 24.7099 121.353L24.3199 121.359H0.792901L0.690904 121.362L0.354901 121.392C0.167901 121.403 0.0559022 121.363 0.0199022 121.081C-0.044161 120.662 0.0476394 120.235 0.277902 119.879L33.4219 65.4392L1.1359 10.8292C0.793237 10.3732 0.735902 10.0012 0.963902 9.71322C1.09064 9.5665 1.24976 9.45127 1.4287 9.37665C1.60763 9.30202 1.80147 9.27003 1.9949 9.28322H26.2089C26.7369 9.25463 27.2648 9.34272 27.7549 9.54122C28.1649 9.77422 28.5179 10.0972 28.7849 10.4862C30.8456 15.0662 33.1356 19.6456 35.6549 24.2242C38.1544 28.7733 40.7019 33.2959 43.2969 37.7912C45.8522 42.2169 48.2297 46.7428 50.4239 51.3582H50.5959C52.8446 46.7439 55.1632 42.1641 57.5509 37.6202C59.8962 33.1549 62.3002 28.6609 64.7629 24.1382C67.1936 19.6742 69.5695 15.1806 71.8899 10.6582C72.0219 10.2342 72.2579 9.85022 72.5769 9.54122C73.0011 9.32631 73.4777 9.23681 73.9509 9.28322H96.4479C96.6547 9.23166 96.8727 9.24865 97.0691 9.33165C97.2654 9.41464 97.4295 9.55914 97.5366 9.74342C97.6437 9.9277 97.6881 10.1418 97.6631 10.3535C97.6381 10.5652 97.545 10.763 97.3979 10.9172L97.3069 10.9992ZM147.777 123.472L146.593 123.485C138.688 123.606 130.856 121.963 123.666 118.677C116.968 115.577 111.369 110.517 107.609 104.165C103.818 97.8686 101.873 90.0236 101.774 80.6302L101.77 79.8652C101.705 71.9833 103.72 64.2236 107.61 57.3682C111.503 50.5831 117.179 44.9926 124.022 41.2022L124.611 40.8822C132.051 36.7602 141.038 34.6992 151.573 34.6992L152.033 34.7042L152.559 34.7212L153.149 34.7472L153.805 34.7852L154.907 34.8632L156.155 34.9632L157.068 35.0432V1.21122C157.068 0.410555 157.411 0.0098885 158.098 0.00922183H179.737C179.877 -0.010852 180.02 0.00194985 180.154 0.0466135C180.288 0.0912771 180.41 0.166572 180.51 0.266531C180.61 0.36649 180.685 0.488362 180.73 0.622484C180.774 0.756606 180.787 0.89929 180.767 1.03922V102.534C180.767 104.239 180.833 106.074 180.965 108.038L181.285 112.493L181.455 115.07C181.476 115.427 181.389 115.782 181.205 116.089C181.021 116.395 180.749 116.639 180.424 116.788C174.841 119.116 169.027 120.843 163.079 121.939C158.029 122.872 152.911 123.385 147.777 123.472ZM157.068 102.19V55.3072C156.14 55.0557 155.192 54.8835 154.235 54.7922C153.065 54.674 151.89 54.6166 150.714 54.6202C146.547 54.5782 142.428 55.5197 138.693 57.3682C135.055 59.1779 131.949 61.8998 129.677 65.2682C127.41 68.5842 126.237 72.9142 126.16 78.2582L126.156 78.8352C126.073 82.5785 126.684 86.3048 127.959 89.8252C128.997 92.6623 130.638 95.2405 132.769 97.3822C134.808 99.3526 137.277 100.822 139.981 101.675C142.837 102.6 145.823 103.064 148.825 103.05C150.427 103.05 151.915 102.993 153.29 102.877C154.387 102.795 155.474 102.614 156.538 102.337L157.068 102.19Z" fill="#FF61F6"/>
</svg>
